# xmcd
# Track frame offsets:
# 150
# 11082
# 22892
# 31417
# 42747
# 52890
# 62307
# 72882
# 82192
# 91790
# 100555
# 114097
# 123672
# 131572
# 141982
# 155380
# 167082
# 180500
# 190865
# 199492
# 213687
# 221425
# 234097
# 241942
# 256167
# 264977
# 284380
# 303480
# 314652
# 322960
#
# Disc length: 4387 seconds
# Revision: 0
# Processed by: cddbd v1.4PL0 Copyright (c) Steve Scherf et al.
# Submitted via: VisiTrax 2.9.5.180 - For more info visit www.synapsa.com
#
DISCID=a211211e
DTITLE=Sleepy LaBeef - Lets turn back the years
DYEAR=1994
DGENRE=
TTITLE0=Let's turn back the years
TTITLE1=Baby let's play house
TTITLE2=All the time
TTITLE3=Lonely
TTITLE4=I'm through
TTITLE5=All alone
TTITLE6=Little bit more
TTITLE7=All the time
TTITLE8=The ways of a woman in love
TTITLE9=Ballad of the teenage queen
TTITLE10=Lonely
TTITLE11=i ain't gonna take it
TTITLE12=Ridin' fence
TTITLE13=Turn me loose
TTITLE14=Ride on Josephine
TTITLE15=Lonely
TTITLE16=Don't make me go
TTITLE17=Can't get you off my mind
TTITLE18=Tore up
TTITLE19=Ride on Josephine
TTITLE20=Found out
TTITLE21=Walkin' slowly
TTITLE22=Somebody's beatin' my time
TTITLE23=I'm a man
TTITLE24=Tore up '78
TTITLE25=Medley: That's alright-Good rockin boogie
TTITLE26=Elvis Presley Medley: One night - I forgot to remember - Tryin' to ge
TTITLE26=t to you - You're right I'm left
TTITLE27=Frankie and Jonny
TTITLE28=There ain't much after taxes
TTITLE29=Instrumental
EXTD=
EXTT0=
EXTT1=
EXTT2=
EXTT3=
EXTT4=
EXTT5=
EXTT6=
EXTT7=
EXTT8=
EXTT9=
EXTT10=
EXTT11=
EXTT12=
EXTT13=
EXTT14=
EXTT15=
EXTT16=
EXTT17=
EXTT18=
EXTT19=
EXTT20=
EXTT21=
EXTT22=
EXTT23=
EXTT24=
EXTT25=
EXTT26=
EXTT27=
EXTT28=
EXTT29=
PLAYORDER=
